 <svg version="1.0" xmlns="http://www.w3.org/2000/svg" width="700.000000pt" height="690.000000pt" viewBox="0 0 700.000000 690.000000" preserveAspectRatio="xMidYMid meet">
<metadata>
Created by potrace 1.12, written by Peter Selinger 2001-2015
</metadata>
<g transform="translate(0.000000,690.000000) scale(0.100000,-0.100000)" fill="#000000" stroke="none">
<path d="M2338 4548 c-21 -5 -57 -27 -82 -49 -81 -71 -76 0 -76 -1158 1 -831
3 -1033 14 -1064 21 -57 60 -102 110 -126 l46 -21 1152 0 c1100 0 1155 1 1194
19 48 22 101 82 114 131 6 22 10 429 10 1070 0 984 -1 1037 -19 1075 -22 49
-57 87 -102 112 -32 17 -86 18 -1179 20 -735 1 -1158 -2 -1182 -9z m200 -689
c2 -154 3 -157 29 -183 36 -37 85 -35 124 3 l29 29 0 156 0 156 51 0 51 0 -4
-169 -3 -169 -30 -43 c-42 -59 -87 -84 -155 -84 -65 0 -109 22 -154 78 l-31
39 -3 174 -4 175 49 -3 48 -3 3 -156z m610 141 c37 -23 69 -71 78 -118 12 -60
-41 -154 -98 -175 -20 -7 12 -36 58 -52 35 -12 39 -17 42 -50 5 -53 -6 -60
-71 -41 -45 13 -65 26 -104 70 -34 38 -57 55 -78 58 l-30 3 -3 -72 -3 -73 -44
0 -45 0 0 235 0 235 133 0 c114 0 136 -3 165 -20z m404 -9 c30 -27 33 -35 34
-88 0 -41 6 -68 22 -92 44 -72 35 -150 -25 -214 -37 -37 -79 -47 -210 -47
l-113 0 0 235 0 235 130 0 c129 0 130 0 162 -29z m436 -196 c61 -124 112 -230
112 -235 0 -6 -20 -10 -45 -10 -44 0 -45 1 -70 50 l-25 50 -90 0 -90 0 -25
-50 c-25 -49 -26 -50 -70 -50 -25 0 -45 3 -45 8 0 11 224 461 230 461 3 1 56
-100 118 -224z m349 63 c56 -90 109 -172 117 -183 14 -18 15 -3 16 163 l0 182
45 0 45 0 0 -235 0 -235 -44 0 -45 0 -3 48 -3 47 -60 5 -59 5 -56 89 -55 89
-3 -142 -3 -141 -44 0 -45 0 0 235 0 235 48 0 47 0 102 -162z m-1131 -415 c88
-63 85 -208 -5 -268 -17 -11 -31 -23 -31 -28 0 -11 62 -47 83 -47 14 0 17 -9
17 -50 l0 -49 -32 5 c-64 12 -119 46 -155 95 -28 39 -41 49 -64 49 l-29 0 0
-76 0 -75 -47 3 -48 3 -3 225 c-1 123 -1 229 2 235 2 6 52 8 142 5 123 -4 143
-8 170 -27z m192 -207 l2 -237 -47 3 -48 3 -3 225 c-1 123 -1 229 2 235 2 5
23 9 47 9 l44 -1 3 -237z m1132 231 l25 -13 3 -211 c2 -182 0 -213 -14 -227
-13 -14 -58 -16 -354 -16 -390 0 -370 -5 -370 89 l0 58 44 5 c75 9 126 62 134
139 2 27 -1 62 -8 79 -14 34 -73 90 -95 90 -7 0 -17 5 -20 10 -10 16 623 13
655 -3z m-1802 -16 c120 -62 166 -199 107 -318 -49 -98 -126 -133 -292 -133
l-103 0 0 235 0 235 125 0 c104 0 132 -3 163 -19z m991 4 c92 -47 119 -169 54
-245 -41 -49 -76 -62 -164 -61 l-78 1 -3 -72 -3 -73 -47 -3 -48 -3 0 235 0
236 130 0 c96 0 139 -4 159 -15z m165 -96 c48 -38 22 -119 -39 -119 -24 0 -25
2 -25 70 0 62 2 70 19 70 10 0 30 -9 45 -21z m-830 -443 c-51 -23 -74 -61 -74
-124 0 -51 3 -58 41 -94 l41 -39 -302 3 c-254 3 -302 5 -310 18 -14 22 -13
223 2 238 9 9 94 12 323 12 268 -1 306 -3 279 -14z m295 -7 l34 -20 -21 -21
c-19 -19 -21 -19 -43 -4 -31 22 -61 20 -93 -5 -74 -58 13 -179 90 -124 18 12
24 12 43 -2 21 -14 21 -16 5 -34 -25 -27 -81 -41 -124 -29 -39 10 -67 36 -94
85 l-17 30 5 -32 c7 -40 -19 -51 -62 -29 -32 16 -42 34 -42 71 0 37 10 55 42
71 41 21 70 10 63 -24 -5 -23 -3 -22 14 10 11 20 33 46 47 57 36 28 107 28
153 0z m101 -84 l0 -105 71 0 70 0 -3 -27 -3 -28 -92 -3 -93 -3 0 136 0 135
25 0 25 0 0 -105z m326 86 c45 -28 69 -94 54 -149 -15 -56 -66 -95 -124 -95
-82 0 -136 55 -136 138 0 42 5 52 39 86 34 35 44 39 87 39 31 0 61 -7 80 -19z
m252 -1 c33 -31 28 -50 -11 -50 -18 0 -38 5 -45 12 -9 9 -15 9 -23 1 -17 -17
-4 -30 37 -38 75 -14 109 -88 62 -133 -64 -59 -165 -44 -191 31 -5 14 0 17 27
17 18 0 39 -7 46 -15 16 -19 44 -19 60 0 19 23 5 42 -36 48 -77 13 -111 85
-58 126 36 28 102 28 132 1z m272 -5 c0 -25 -1 -25 -81 -25 -60 0 -80 -3 -77
-12 3 -8 26 -14 56 -16 47 -3 52 -5 52 -27 0 -22 -5 -24 -52 -27 l-53 -3 -3
-37 -3 -38 80 0 81 0 0 -30 0 -30 -105 0 -105 0 0 135 0 135 105 0 105 0 0
-25z m260 0 c0 -23 -4 -25 -45 -25 l-44 0 -3 -107 c-3 -108 -3 -108 -28 -108
-25 0 -25 0 -28 108 l-3 107 -44 0 c-41 0 -45 2 -45 25 l0 25 120 0 120 0 0
-25z"></path>
<path d="M2944 3916 c-3 -7 -4 -38 -2 -67 l3 -54 69 -3 c60 -3 72 0 92 19 32
30 31 72 -2 98 -32 26 -151 31 -160 7z"></path>
<path d="M3354 3915 c-11 -27 10 -36 72 -33 51 3 59 6 59 23 0 18 -8 20 -63
23 -50 2 -63 0 -68 -13z"></path>
<path d="M3357 3783 c-4 -3 -7 -35 -7 -70 l0 -63 75 0 c63 0 77 3 95 22 27 29
25 64 -5 93 -20 21 -33 25 -88 25 -35 0 -67 -3 -70 -7z"></path>
<path d="M3847 3785 c-9 -20 -17 -38 -17 -40 0 -3 18 -5 40 -5 22 0 40 2 40 5
0 11 -34 75 -40 75 -3 0 -14 -16 -23 -35z"></path>
<path d="M2990 3310 l0 -70 69 0 c77 0 105 15 117 62 4 21 0 33 -20 52 -22 23
-33 26 -96 26 l-70 0 0 -70z"></path>
<path d="M2534 3367 c-2 -7 -3 -69 -2 -138 l3 -124 65 -3 c55 -2 72 1 100 20
95 63 87 194 -14 242 -42 20 -144 22 -152 3z"></path>
<path d="M3530 3311 l0 -71 70 0 c80 0 110 19 110 68 0 53 -20 66 -104 70
l-76 4 0 -71z"></path>
<path d="M3650 2852 c-34 -34 -37 -50 -15 -91 24 -48 81 -56 120 -16 47 46 23
118 -42 131 -27 5 -37 1 -63 -24z"></path>
</g>
</svg>